<svg xmlns="http://www.w3.org/2000/svg" xmlns:xlink="http://www.w3.org/1999/xlink" width="1349.292" height="587.194" viewBox="0 0 1349.292 587.194"><defs><linearGradient id="a" x1="0.5" y1="1" x2="0.5" gradientUnits="objectBoundingBox"><stop offset="0" stop-color="gray" stop-opacity="0.251"/><stop offset="0.54" stop-color="gray" stop-opacity="0.122"/><stop offset="1" stop-color="gray" stop-opacity="0.102"/></linearGradient><linearGradient id="b" x1="0.501" y1="1" x2="0.501" y2="0" xlink:href="#a"/><linearGradient id="c" x1="0.5" y1="1" x2="0.5" y2="0" xlink:href="#a"/><linearGradient id="d" x1="0.5" y1="1" x2="0.5" y2="0" xlink:href="#a"/><linearGradient id="h" x1="0.5" y1="1" x2="0.5" y2="0" xlink:href="#a"/><linearGradient id="i" x1="0.5" y1="1" x2="0.5" y2="0" xlink:href="#a"/><linearGradient id="m" x1="0.5" y1="1" x2="0.5" y2="0" xlink:href="#a"/><linearGradient id="n" x1="0.501" y1="1" x2="0.501" y2="0" xlink:href="#a"/><linearGradient id="o" x1="0.5" y1="1.001" x2="0.5" gradientUnits="objectBoundingBox"><stop offset="0" stop-opacity="0.122"/><stop offset="0.55" stop-opacity="0.09"/><stop offset="1" stop-opacity="0.02"/></linearGradient><linearGradient id="p" y1="0.5" x2="1" y2="0.5" gradientUnits="objectBoundingBox"><stop offset="0" stop-color="gray" stop-opacity="0.251"/><stop offset="0.535" stop-color="gray" stop-opacity="0.122"/><stop offset="1" stop-color="gray" stop-opacity="0.102"/></linearGradient></defs><g transform="translate(-601.931 -241.373)"><path d="M561.9,339.2a36.488,36.488,0,0,0-71.589-7.693c-.442-.016-.884-.034-1.33-.034a36.494,36.494,0,0,0-35.007,26.2,25.787,25.787,0,0,0-30.6,7.617H537.188a24.68,24.68,0,0,0,24.735-25.553Q561.911,339.466,561.9,339.2Z" transform="translate(755.234 87.311)" fill="#e6e6e6"/><path d="M529.743,331.2a28.018,28.018,0,0,0-54.972-5.907c-.339-.012-.679-.026-1.021-.026a28.023,28.023,0,0,0-26.881,20.119,19.8,19.8,0,0,0-23.5,5.849h87.4a18.952,18.952,0,0,0,18.993-19.622Q529.754,331.411,529.743,331.2Z" transform="translate(458.793 64.572)" fill="#e6e6e6"/><path d="M600.283,346.922c-1.288-21.831-18.868-39.56-41.545-41.9s-43.785,11.407-49.881,32.478c-.565-.019-1.128-.041-1.7-.041-20.669,0-38.875,13.061-44.708,32.08a33.85,33.85,0,0,0-39.079,9.327H568.727c17.858,0,32.317-14.181,31.589-31.287Q600.3,347.252,600.283,346.922Z" transform="translate(661.599 -63.394)" fill="#e6e6e6"/><ellipse cx="135.903" cy="135.903" rx="135.903" ry="135.903" transform="translate(658.095 504.356)" opacity="0.3" stroke="#ff9800" stroke-miterlimit="10" stroke-width="4" stroke-dasharray="12" fill="none"/><ellipse cx="135.903" cy="135.903" rx="135.903" ry="135.903" transform="translate(1016.521 477.474)" opacity="0.3" stroke="#ff9800" stroke-miterlimit="10" stroke-width="4" stroke-dasharray="12" fill="none"/><line y2="180.886" transform="translate(1264.903 631.739)" fill="#795548"/><line x1="32.303" y1="32.945" transform="translate(1233.152 652.968)" fill="#795548"/><rect width="5.451" height="46.14" transform="matrix(0.714, -0.7, 0.7, 0.714, 1231.215, 654.877)" fill="#795548"/><line y1="23.492" x2="33.483" transform="translate(1265.455 690.738)" fill="#795548"/><path d="M948.708,495.095a33.46,33.46,0,0,0-6.907-50.03,19.787,19.787,0,0,0,3.166-10.775A19.07,19.07,0,0,0,907.5,428.8a28.375,28.375,0,0,0-24.418-14.091c-15.748,0-28.517,13.06-28.517,29.167a29.706,29.706,0,0,0,1.747,10.066c-.575-.045-1.157-.09-1.747-.09a23.135,23.135,0,0,0-22.887,23.41,22.384,22.384,0,0,0,.12,2.36,29.123,29.123,0,0,0-17.175,26.71c0,16.054,12.694,29.07,28.428,29.07a27.955,27.955,0,0,0,4.921-.441c-.082.971-.134,1.949-.134,2.935,0,18.018,14.277,32.617,31.892,32.617a31.25,31.25,0,0,0,18.16-5.81,23.41,23.41,0,0,0,15.42,5.81c13.157,0,23.828-10.91,23.828-24.373,0-.582-.045-1.157-.082-1.732h.082c14.091,0,25.515-11.686,25.515-26.1A26.134,26.134,0,0,0,948.708,495.095Z" transform="translate(317.359 173.809)" fill="#00897b"/><rect width="3.726" height="181.685" transform="translate(1212.596 638.55)" fill="#795548"/><rect width="45.012" height="3.726" transform="translate(1213.1 687.768) rotate(-47.2)" fill="#795548"/><rect width="3.726" height="39.494" transform="matrix(0.596, -0.803, 0.803, 0.596, 1178.668, 695.419)" fill="#795548"/><path d="M804.764,575.366a22.917,22.917,0,0,1-6.213-15.681,23.261,23.261,0,0,1,11.41-19.878,13.5,13.5,0,0,1-2.382-7.654,14.156,14.156,0,0,1,14.39-13.9,14.33,14.33,0,0,1,13.807,10.006,21.6,21.6,0,0,1,18.362-10.006c11.843,0,21.446,9.274,21.446,20.714a20.05,20.05,0,0,1-1.314,7.154c.433,0,.866-.067,1.314-.067a16.91,16.91,0,0,1,17.175,16.629,16.228,16.228,0,0,1-.09,1.68,20.647,20.647,0,0,1,12.926,18.974c0,11.4-9.565,20.647-21.371,20.647a22.215,22.215,0,0,1-3.734-.314c.067.687.1,1.381.1,2.083,0,12.8-10.738,23.148-23.985,23.148a24.446,24.446,0,0,1-13.6-4.055,18.2,18.2,0,0,1-11.6,4.092c-9.894,0-17.921-7.751-17.921-17.309a7.39,7.39,0,0,1,.067-1.225h-.067c-10.6,0-19.183-8.3-19.183-18.534A18.474,18.474,0,0,1,804.764,575.366Z" transform="translate(322.503 147.585)" fill="url(#a)"/><path d="M807.5,576.1a21.931,21.931,0,0,1-5.974-14.994,22.26,22.26,0,0,1,10.925-19.026,12.916,12.916,0,0,1-2.277-7.326,13.547,13.547,0,0,1,13.769-13.306,13.71,13.71,0,0,1,13.217,9.58,20.669,20.669,0,0,1,17.57-9.58c11.335,0,20.527,8.879,20.527,19.833A19.192,19.192,0,0,1,874,548.13c.418,0,.829-.06,1.254-.06,9.095,0,16.473,7.124,16.473,15.913a15.571,15.571,0,0,1-.082,1.606,19.765,19.765,0,0,1,12.373,18.16c0,10.917-9.162,19.766-20.46,19.766a21.249,21.249,0,0,1-3.539-.3c.06.657.1,1.322.1,1.994,0,12.246-10.275,22.178-22.954,22.178a23.4,23.4,0,0,1-13.068-3.95,17.428,17.428,0,0,1-11.1,3.95c-9.469,0-17.175-7.415-17.175-16.57a7.643,7.643,0,0,1,.06-1.172h-.06c-10.141,0-18.362-7.945-18.362-17.742A17.682,17.682,0,0,1,807.5,576.1Z" transform="translate(321.705 146.774)" fill="#009688"/><line y2="123.261" transform="translate(1168.113 699.676)" fill="#795548"/><rect width="6.713" height="123.261" transform="translate(1164.641 699.676)" fill="url(#b)"/><rect width="3.711" height="123.261" transform="translate(1166.254 699.676)" fill="#795548"/><line x1="22.006" y1="22.454" transform="translate(1146.48 714.14)" fill="#795548"/><rect width="3.711" height="31.437" transform="matrix(0.714, -0.7, 0.7, 0.714, 1145.152, 715.437)" fill="#795548"/><line y1="16.01" x2="22.82" transform="translate(1168.486 739.879)" fill="#795548"/><rect width="27.875" height="3.711" transform="translate(1167.423 754.353) rotate(-35.06)" fill="#795548"/><path d="M860.344,580.143a23.895,23.895,0,0,0-4.936-35.783,14.187,14.187,0,0,0,2.24-7.706,13.65,13.65,0,0,0-26.815-3.92A20.3,20.3,0,0,0,813.39,522.66,20.627,20.627,0,0,0,793,543.516a21.23,21.23,0,0,0,1.247,7.2c-.411,0-.829-.067-1.247-.067a16.555,16.555,0,0,0-16.368,16.741,11.526,11.526,0,0,0,.082,1.688,20.8,20.8,0,0,0-12.291,19.1,20.565,20.565,0,0,0,20.326,20.789,19.983,19.983,0,0,0,3.517-.314c-.06.695-.1,1.389-.1,2.1,0,12.881,10.215,23.328,22.8,23.328a22.349,22.349,0,0,0,12.986-4.152,16.741,16.741,0,0,0,11.029,4.152,17.234,17.234,0,0,0,17.04-17.428,8.56,8.56,0,0,0-.06-1.24h.06a18.46,18.46,0,0,0,18.25-18.668A18.7,18.7,0,0,0,860.344,580.143Z" transform="translate(330.074 146.467)" fill="url(#c)"/><path d="M858.812,581.2a22.461,22.461,0,0,0-4.637-33.6,13.286,13.286,0,0,0,2.128-7.228,12.814,12.814,0,0,0-25.172-3.681,19.049,19.049,0,0,0-16.39-9.453A19.36,19.36,0,0,0,795.6,546.809a19.927,19.927,0,0,0,1.172,6.758c-.388,0-.747-.06-1.172-.06a15.539,15.539,0,0,0-15.36,15.681,11.085,11.085,0,0,0,.075,1.583,19.527,19.527,0,0,0-11.537,17.921A19.3,19.3,0,0,0,787.858,608.2a18.757,18.757,0,0,0,3.3-.3q-.09.974-.09,1.971a21.659,21.659,0,0,0,21.409,21.894,20.977,20.977,0,0,0,12.194-3.9,15.68,15.68,0,0,0,10.349,3.9,16.182,16.182,0,0,0,15.995-16.353,7.642,7.642,0,0,0-.06-1.157h.06a17.324,17.324,0,0,0,17.13-17.518,17.555,17.555,0,0,0-9.334-15.547Z" transform="translate(328.97 145.31)" fill="#00897b"/><rect width="4.973" height="123.687" transform="translate(1149.042 701.513)" fill="url(#d)"/><rect width="2.502" height="121.947" transform="translate(1150.453 703.253)" fill="#795548"/><rect width="30.212" height="2.502" transform="translate(1150.212 739.156) rotate(-47.2)" fill="#795548"/><rect width="2.502" height="26.509" transform="matrix(0.596, -0.803, 0.803, 0.596, 1129.113, 744.299)" fill="#795548"/><rect width="210.575" height="187.427" transform="translate(935.547 640.849)" fill="url(#d)"/><rect width="343.492" height="181.453" transform="translate(797.403 640.849)" fill="#fff"/><path d="M734.088,478.9H396.57V390.79h325.2a12.321,12.321,0,0,1,12.321,12.321Z" transform="translate(423.243 179.867)" fill="url(#d)"/><path d="M250.26,146h322.3a12.321,12.321,0,0,1,12.321,12.321v70.035H250.26Z" transform="translate(569.545 428.145)" fill="#3660a8"/><path d="M250.26,146h322.3a12.321,12.321,0,0,1,12.321,12.321v70.035H250.26Z" transform="translate(569.545 428.145)" fill="#fff" opacity="0.7"/><path d="M209.748,13.32,93.26,95.355V366.519H326.237V95.355Z" transform="translate(609.31 461.75)" fill="url(#d)"/><path d="M323.289,93.973,212.775,13.32,102.26,93.973v67.944H323.289Z" transform="translate(607.03 461.75)" fill="#3660a8"/><path d="M323.289,93.973,212.775,13.32,102.26,93.973v67.944H323.289Z" transform="translate(607.03 461.75)" fill="#fff" opacity="0.5"/><rect width="221.029" height="198.628" transform="translate(709.29 623.675)" fill="#fff"/><path d="M329.372,131.515,204.67,42.469l-126.2,89.046L70.26,100.2,204.67,2.37,339.079,100.2Z" transform="translate(615.135 464.523)" fill="url(#h)"/><path d="M330.122,127.827,206.562,37.9,83.009,127.827,77.73,99.668,206.562,5.91,335.4,99.668Z" transform="translate(613.243 463.626)" fill="#3660a8"/><path d="M330.122,127.827,206.562,37.9,83.009,127.827,77.73,99.668,206.562,5.91,335.4,99.668Z" transform="translate(613.243 463.626)" opacity="0.2"/><rect width="125.449" height="155.318" transform="translate(757.08 666.984)" fill="#f2f2f2"/><rect width="125.449" height="26.882" transform="translate(757.08 666.984)" fill="#3660a8"/><rect width="125.449" height="26.882" transform="translate(757.08 795.42)" fill="#3660a8"/><path d="M677.52,652.24a1.12,1.12,0,1,0-1.12-1.12A1.12,1.12,0,0,0,677.52,652.24Z" transform="translate(352.368 114.215)" fill="lime"/><rect width="61.231" height="113.502" transform="translate(999.018 708.801)" fill="#f2f2f2"/><rect width="57.498" height="41.816" transform="translate(1075.93 684.906)" fill="#f2f2f2"/><rect width="57.498" height="18.668" transform="translate(1075.93 684.906)" fill="#3660a8" opacity="0.2"/><path d="M204.034,608.405a19.1,19.1,0,0,1-5.227-13.06,19.415,19.415,0,0,1,9.513-16.57,11.254,11.254,0,0,1-1.986-6.377,11.8,11.8,0,0,1,11.992-11.589,11.947,11.947,0,0,1,11.529,8.356,18,18,0,0,1,15.308-8.341c9.872,0,17.877,7.736,17.877,17.272a16.719,16.719,0,0,1-1.1,5.974c.366,0,.747-.052,1.1-.052a14.108,14.108,0,0,1,14.344,13.859,13.546,13.546,0,0,1-.075,1.4,17.212,17.212,0,0,1,10.775,15.816c0,9.506-7.975,17.212-17.817,17.212a18.518,18.518,0,0,1-3.084-.261c.052.575.082,1.15.082,1.74,0,10.67-8.961,19.318-19.99,19.318a20.377,20.377,0,0,1-11.388-3.442,15.18,15.18,0,0,1-9.67,3.442,14.71,14.71,0,0,1-14.934-14.434,6.661,6.661,0,0,1,.052-1.023h-.052c-8.834,0-15.995-6.922-15.995-15.45a15.4,15.4,0,0,1,8.744-13.785Z" transform="translate(474.223 136.805)" fill="url(#i)"/><path d="M206.3,609.014a18.287,18.287,0,0,1-4.958-12.5,18.556,18.556,0,0,1,9.1-15.86,10.768,10.768,0,0,1-1.9-6.108,11.29,11.29,0,0,1,11.485-11.1,11.432,11.432,0,0,1,11.014,7.982,17.227,17.227,0,0,1,14.651-7.982c9.446,0,17.107,7.4,17.107,16.532a16,16,0,0,1-1.045,5.7c.343,0,.694-.052,1.045-.052A13.526,13.526,0,0,1,276.54,598.9a12.954,12.954,0,0,1-.067,1.337,16.48,16.48,0,0,1,10.3,15.143c0,9.1-7.632,16.48-17.055,16.48a17.7,17.7,0,0,1-2.985-.254c.05.545.08,1.1.08,1.665,0,10.208-8.565,18.489-19.139,18.489a19.5,19.5,0,0,1-10.858-3.3,14.523,14.523,0,0,1-9.251,3.294,14.058,14.058,0,0,1-14.292-13.814,6.094,6.094,0,0,1,.052-.978h-.052a15.058,15.058,0,0,1-15.308-14.792A14.74,14.74,0,0,1,206.3,609.014Z" transform="translate(473.544 136.137)" fill="#009688"/><line y2="102.756" transform="translate(712.285 725.811)" fill="#795548"/><rect width="5.6" height="102.756" transform="translate(709.387 725.811)" fill="url(#d)"/><rect width="3.091" height="102.756" transform="translate(710.732 725.811)" fill="#795548"/><line x1="18.354" y1="18.72" transform="translate(694.244 737.863)" fill="#795548"/><rect width="3.091" height="26.21" transform="matrix(0.714, -0.7, 0.7, 0.714, 693.141, 738.948)" fill="#795548"/><line y1="13.344" x2="19.019" transform="translate(712.598 759.324)" fill="#795548"/><rect width="23.238" height="3.091" transform="translate(711.707 771.392) rotate(-35.06)" fill="#795548"/><path d="M155.034,608.405a19.1,19.1,0,0,1-5.227-13.06,19.415,19.415,0,0,1,9.513-16.57,11.253,11.253,0,0,1-1.986-6.377,11.8,11.8,0,0,1,11.992-11.589,11.947,11.947,0,0,1,11.529,8.356,18,18,0,0,1,15.308-8.341c9.872,0,17.876,7.736,17.876,17.272a16.72,16.72,0,0,1-1.1,5.974c.366,0,.747-.052,1.1-.052a14.108,14.108,0,0,1,14.344,13.859,13.557,13.557,0,0,1-.075,1.4,17.212,17.212,0,0,1,10.775,15.816c0,9.506-7.975,17.212-17.817,17.212a18.518,18.518,0,0,1-3.084-.261c.052.575.082,1.15.082,1.74,0,10.67-8.961,19.318-19.99,19.318a20.377,20.377,0,0,1-11.387-3.442,15.181,15.181,0,0,1-9.67,3.442,14.71,14.71,0,0,1-14.934-14.434,6.654,6.654,0,0,1,.052-1.023h-.052c-8.834,0-15.995-6.922-15.995-15.45A15.4,15.4,0,0,1,155.034,608.405Z" transform="translate(486.633 136.805)" fill="url(#i)"/><path d="M157.3,609.014a18.287,18.287,0,0,1-4.958-12.5,18.556,18.556,0,0,1,9.1-15.86,10.767,10.767,0,0,1-1.9-6.108,11.29,11.29,0,0,1,11.485-11.1,11.432,11.432,0,0,1,11.014,7.982,17.227,17.227,0,0,1,14.651-7.982c9.446,0,17.107,7.4,17.107,16.532a16,16,0,0,1-1.045,5.7c.343,0,.694-.052,1.045-.052A13.526,13.526,0,0,1,227.54,598.9a12.979,12.979,0,0,1-.067,1.337,16.48,16.48,0,0,1,10.3,15.143c0,9.1-7.631,16.48-17.055,16.48a17.7,17.7,0,0,1-2.985-.254c.05.545.08,1.1.08,1.665,0,10.208-8.565,18.489-19.138,18.489a19.5,19.5,0,0,1-10.858-3.3,14.523,14.523,0,0,1-9.251,3.294,14.058,14.058,0,0,1-14.292-13.814,6.092,6.092,0,0,1,.052-.978h-.052a15.058,15.058,0,0,1-15.308-14.792A14.74,14.74,0,0,1,157.3,609.014Z" transform="translate(485.954 136.137)" fill="#009688"/><line y2="102.756" transform="translate(675.695 725.811)" fill="#795548"/><rect width="5.6" height="102.756" transform="translate(672.798 725.811)" fill="url(#d)"/><rect width="3.091" height="102.756" transform="translate(674.142 725.811)" fill="#795548"/><line x1="18.354" y1="18.72" transform="translate(657.655 737.863)" fill="#795548"/><rect width="3.091" height="26.21" transform="matrix(0.714, -0.7, 0.7, 0.714, 656.558, 738.949)" fill="#795548"/><line y1="13.344" x2="19.019" transform="translate(676.009 759.324)" fill="#795548"/><rect width="23.238" height="3.091" transform="translate(675.118 771.398) rotate(-35.06)" fill="#795548"/><path d="M242.344,609.372a19.945,19.945,0,0,0-4.114-29.869,11.8,11.8,0,0,0,1.889-6.422,11.38,11.38,0,0,0-22.357-3.271,16.92,16.92,0,0,0-14.554-8.4,17.174,17.174,0,0,0-17,17.384,17.706,17.706,0,0,0,1.038,5.974c-.344,0-.687-.053-1.038-.053a13.8,13.8,0,0,0-13.658,14.023,9.833,9.833,0,0,0,.067,1.411,17.4,17.4,0,0,0,6.7,33.251,16.647,16.647,0,0,0,2.935-.261c-.052.575-.082,1.157-.082,1.747A19.207,19.207,0,0,0,201.177,654.3,18.67,18.67,0,0,0,212,650.837,13.957,13.957,0,0,0,221.2,654.3a14.367,14.367,0,0,0,14.188-14.524,6.76,6.76,0,0,0-.052-1.031h.052a15.39,15.39,0,0,0,15.211-15.554,15.591,15.591,0,0,0-8.251-13.822Z" transform="translate(482.561 136.653)" fill="url(#m)"/><path d="M241.083,610.259a18.72,18.72,0,0,0-3.868-28,11.073,11.073,0,0,0,1.77-6.026A10.678,10.678,0,0,0,218,573.162a15.883,15.883,0,0,0-13.665-7.885,16.144,16.144,0,0,0-15.92,16.323,16.614,16.614,0,0,0,.978,5.63c-.321,0-.65-.052-.978-.052a12.956,12.956,0,0,0-12.806,13.1,8.609,8.609,0,0,0,.067,1.322,16.278,16.278,0,0,0-9.618,14.934A16.092,16.092,0,0,0,181.965,632.8a15.645,15.645,0,0,0,2.755-.246c-.045.545-.075,1.09-.075,1.643a18.05,18.05,0,0,0,17.847,18.25,17.487,17.487,0,0,0,10.163-3.248,13.1,13.1,0,0,0,8.617,3.241A13.486,13.486,0,0,0,234.609,638.8a6.988,6.988,0,0,0-.045-.971h.045a14.441,14.441,0,0,0,14.277-14.606A14.636,14.636,0,0,0,241.083,610.259Z" transform="translate(481.626 135.676)" fill="#00897b"/><rect width="4.144" height="103.115" transform="translate(690.406 725.102)" fill="url(#n)"/><rect width="2.083" height="101.666" transform="translate(691.586 726.55)" fill="#795548"/><rect width="25.187" height="2.083" transform="translate(691.406 756.485) rotate(-47.2)" fill="#795548"/><rect width="2.083" height="22.103" transform="matrix(0.596, -0.803, 0.803, 0.596, 673.798, 760.767)" fill="#795548"/><path d="M665.95,377.85c-9.192,0-9.207,14.277,0,14.277S675.149,377.85,665.95,377.85Z" transform="translate(356.762 183.145)" fill="url(#o)"/><path d="M675.244,372c-5.587,0-5.6,8.678,0,8.678S680.836,372,675.244,372Z" transform="translate(286.276 323.732)" fill="#3660a8"/><path d="M722.168,310.757c-15.033-.34-28.717,7.2-35.989,18.609-2.374,3.713,4.366,6.994,6.727,3.3,6.023-9.427,17.47-15.432,29.839-15.1a38.031,38.031,0,0,1,31.028,18.047c2.374,3.908,8.583.354,6.227-3.531C752.415,319.576,737.7,311.111,722.168,310.757Z" transform="translate(278.286 357.184)" fill="#3660a8"/><path d="M727.953,270.768a69.439,69.439,0,1,0-11.361,105.773l50.2,52.2a3.377,3.377,0,0,0,4.78.1l12.509-12.028a3.377,3.377,0,0,0,.1-4.779l-50.2-52.2A69.444,69.444,0,0,0,727.953,270.768ZM712.316,354.7a49.669,49.669,0,1,1,1.362-70.23A49.669,49.669,0,0,1,712.316,354.7Z" transform="translate(320.414 390.66)" fill="#3660a8"/><ellipse cx="53.588" cy="54.659" rx="53.588" ry="54.659" transform="translate(1084.969 524.275)" fill="#3660a8"/><path d="M877.472,211.931h-21.7V191H847.7v20.931H826v7.788h21.7v20.931h8.074V219.72h21.7Z" transform="translate(287.146 362.82)" fill="#fff"/><path d="M347.673,308.507l6.6,6.054,8.188-11.812,3.3,2.752-11.49,14.564-9.357-10.458Z" transform="translate(461.307 267.275)" fill="url(#p)"/><circle cx="19.787" cy="19.787" r="19.787" transform="translate(1856.425 700.427)" fill="#3660a8" opacity="0.4"/><path d="M808.428,110.479a74.816,74.816,0,0,0-74.816,74.816c0,41.32,74.816,197.728,74.816,197.728S883.245,226.615,883.245,185.3a74.816,74.816,0,0,0-74.816-74.816Zm0,110.443A35.627,35.627,0,1,1,844.055,185.3a35.627,35.627,0,0,1-35.627,35.627Z" transform="translate(1067.979 298.851)" fill="#3660a8" opacity="0.4"/><path d="M591.32,346.509a44.237,44.237,0,0,0-86.795-9.327c-.536-.019-1.071-.041-1.612-.041a44.246,44.246,0,0,0-42.443,31.766,31.264,31.264,0,0,0-37.1,9.235H561.362a29.922,29.922,0,0,0,29.988-30.981Q591.337,346.836,591.32,346.509Z" transform="translate(178.56 -62.668)" fill="#e6e6e6"/><path d="M482.14,319.374a15.48,15.48,0,0,0-30.371-3.264c-.188-.007-.375-.014-.564-.014a15.483,15.483,0,0,0-14.852,11.116,10.94,10.94,0,0,0-12.982,3.232h48.287A10.471,10.471,0,0,0,482.151,319.6Q482.146,319.488,482.14,319.374Z" transform="translate(315.602 74.97)" fill="#e6e6e6"/></g></svg>