<svg xmlns="http://www.w3.org/2000/svg" width="624.664" height="745" viewBox="0 0 624.664 745"><g transform="translate(-56.728 -275)"><g transform="translate(-2 39)"><path d="M594.142,76.854,332,238.174S332,570.9,594.142,752.381C856.287,570.9,856.287,238.174,856.287,238.174L725.213,157.513Z" transform="translate(-273.27 159.146)" fill="#3660a8"/><g transform="translate(18 34.483)"><g transform="translate(210.609 356.517)"><g transform="translate(0 0)"><rect width="178.724" height="358.881" rx="15.218" transform="translate(3.337 3.336)" fill="#e9eef7"/><rect width="159.527" height="159.738" rx="9.777" transform="translate(12.936 63.325)" fill="#5887c8"/><path d="M415.334,260.666h0a15.185,15.185,0,0,0-15.184-15.184H340.675a15.184,15.184,0,0,0-15.183,15.184h0a15.183,15.183,0,0,0,15.183,15.183H400.15A15.184,15.184,0,0,0,415.334,260.666Z" transform="translate(-277.713 -0.253)" fill="#5887c8"/><path d="M447.45,389.427H302.579a20.287,20.287,0,0,1-20.264-20.264V44.135a20.287,20.287,0,0,1,20.264-20.263H447.45a20.286,20.286,0,0,1,20.263,20.263V369.163A20.286,20.286,0,0,1,447.45,389.427ZM302.579,30.545a13.6,13.6,0,0,0-13.59,13.59V369.163a13.605,13.605,0,0,0,13.59,13.59H447.45a13.6,13.6,0,0,0,13.589-13.59V44.135a13.6,13.6,0,0,0-13.589-13.59Z" transform="translate(-282.315 -23.872)"/><rect width="43.45" height="13.236" rx="5.95" transform="translate(70.974 0.055)"/><g transform="translate(21.656 8.063)"><text transform="translate(0 1)" fill="#fff" font-size="1" font-family="Montserrat-Bold, Montserrat" font-weight="700" letter-spacing="0.1em"><tspan x="0" y="0">9:21</tspan></text><g transform="translate(114.011 1.721)"><rect width="1.102" height="2.92" transform="translate(0 1.997)" fill="#fff"/><rect width="1.102" height="4.114" transform="translate(1.484 0.803)" fill="#fff"/><rect width="1.102" height="4.917" transform="translate(2.968)" fill="#fff"/><g transform="translate(9.273 0.328)"><g transform="translate(2.083 2.942)"><path d="M415.178,36.3l.643.644a1.438,1.438,0,0,1,1.961.045l.643-.644A2.349,2.349,0,0,0,415.178,36.3Z" transform="translate(-415.178 -35.669)" fill="#fff"/></g><g transform="translate(1.004 1.417)"><path d="M414.2,35.366l.643.644a2.964,2.964,0,0,1,4.118.045l.644-.644A3.877,3.877,0,0,0,414.2,35.366Z" transform="translate(-414.203 -34.291)" fill="#fff"/></g><path d="M413.3,34.5l.646.646a4.382,4.382,0,0,1,6.119.045l.644-.643A5.294,5.294,0,0,0,413.3,34.5Z" transform="translate(-413.296 -33.01)" fill="#fff"/></g><path d="M433.795,34.1h-1.3V33.01h-7.232V37.6h7.232v-1.09h1.3Z" transform="translate(-402.747 -32.682)" fill="#fff"/></g></g><g transform="translate(21.602 71.886)"><g transform="translate(0.055)"><path d="M325.717,88.835v3.377H305.263v20.442h-3.377V88.835Z" transform="translate(-301.886 -88.835)" fill="#f9f9f9"/></g><g transform="translate(118.308 118.374)"><path d="M408.75,219.627V216.25H429.2V195.808h3.377v23.819Z" transform="translate(-408.75 -195.808)" fill="#f9f9f9"/></g><g transform="translate(118.374 0.055)"><path d="M432.629,112.715h-3.377V92.261H408.81V88.884h23.819Z" transform="translate(-408.81 -88.884)" fill="#f9f9f9"/></g><g transform="translate(0 118.308)"><path d="M301.837,195.748h3.377V216.2h20.442v3.377H301.837Z" transform="translate(-301.837 -195.748)" fill="#f9f9f9"/></g></g><g transform="translate(38.093 95.2)"><rect width="109.212" height="109.211" fill="#fff"/><g transform="translate(6.503 6.471)"><path d="M355.134,115.751h-5.064v5.063H360.2v-5.063Z" transform="translate(-319.69 -115.751)"/><rect width="5.063" height="5.063" transform="translate(60.761 0)"/><path d="M374.9,120.815h-5.063v-5.063h-5.064v5.063H359.71v10.127h-5.063V136h5.063v5.063h10.127V136h-5.064V125.878h15.19v-5.063Z" transform="translate(-319.202 -115.751)"/><path d="M382.589,129.966V124.9h-5.063v10.127h5.063Z" transform="translate(-316.764 -114.776)"/><path d="M350.071,139.118v5.063h5.064V134.054h-5.064Z" transform="translate(-319.69 -113.8)"/><rect width="5.064" height="5.063" transform="translate(55.698 20.254)"/><rect width="5.063" height="5.063" transform="translate(35.444 55.698)"/><rect width="5.064" height="5.063" transform="translate(0 30.381)"/><path d="M374.412,148.757h5.064v5.063h5.063v-5.063H389.6v-5.063h-5.063V138.63h-5.063v5.063H359.222v5.063h10.127v5.063h5.063Z" transform="translate(-318.715 -113.313)"/><path d="M405.467,148.269v-5.063H400.4v10.127h5.063Z" transform="translate(-314.326 -112.825)"/><rect width="5.064" height="5.063" transform="translate(0 40.508)"/><path d="M345.983,158.4h5.063v-5.063h5.064v-5.064H345.983v-5.063h-5.063v10.127h5.063Z" transform="translate(-320.665 -112.825)"/><rect width="5.063" height="5.063" transform="translate(45.571 40.508)"/><path d="M397.291,153.333V143.206h-5.063v10.127H382.1V158.4h10.127v5.063h5.063V158.4h5.063v-5.063Z" transform="translate(-316.276 -112.825)"/><path d="M347.446,158.4h-5.063v-5.063h-5.063V143.206h-5.063v5.063h-5.063v5.064h5.063V158.4h5.063v5.063h5.063v5.063h5.063V158.4Z" transform="translate(-322.128 -112.825)"/><path d="M354.646,162.484h5.063v5.063h5.063V157.42H359.71v-5.063h-5.063v10.127Z" transform="translate(-319.202 -111.85)"/><path d="M405.955,156.933h-5.063V167.06h-5.064v5.063h5.064v5.064h5.063v10.127h5.063v-15.19h-5.063V167.06h5.063V162h-5.063Z" transform="translate(-314.813 -111.362)"/><path d="M327.68,161.509h-5.064v10.127h5.064V176.7h5.063V166.572H327.68Z" transform="translate(-322.616 -110.874)"/><rect width="5.063" height="5.063" transform="translate(10.127 50.634)"/><path d="M383.564,162v-5.064h-15.19V167.06h5.063V162H378.5v5.063h5.063v5.063h5.063V167.06h5.064V162H383.564Z" transform="translate(-317.739 -111.362)"/><rect width="5.063" height="5.063" transform="translate(15.19 55.698)"/><path d="M350.558,166.084h-5.063v10.127h5.063v10.127h5.064v-15.19h-5.064Z" transform="translate(-320.178 -110.387)"/><rect width="5.063" height="5.063" transform="translate(45.571 55.698)"/><rect width="5.063" height="5.063" transform="translate(40.507 60.761)"/><path d="M378.5,180.787V170.66h-5.064v5.064h-5.063v5.063H378.5Z" transform="translate(-317.739 -109.899)"/><rect width="5.063" height="5.063" transform="translate(40.507 70.888)"/><rect width="5.063" height="5.063" transform="translate(50.634 75.951)"/><path d="M397.875,185.851v-15.2H377.52V191.01h5.069v4.969h5.063V191.01h5.064v4.969h5.064V191.01h.1v-.1h4.969v5.064H412.97v-5.064h-5.064v-5.064H397.875Zm-16.457-11.3h12.659v12.658H381.417Z" transform="translate(-316.764 -109.899)"/><path d="M354.646,194.514v5.063h5.063v-15.19h-5.063v10.127Z" transform="translate(-319.202 -108.436)"/><path d="M372.949,193.539V198.6h10.127v-5.063H372.949Z" transform="translate(-317.252 -107.46)"/><rect width="5.063" height="5.063" transform="translate(30.381 91.142)"/><path d="M364.285,203.178h5.064v-5.064H359.222v5.064Z" transform="translate(-318.715 -106.973)"/><path d="M400.4,198.114v5.064H410.53v-5.064H400.4Z" transform="translate(-314.326 -106.973)"/><rect width="5.063" height="5.063" transform="translate(68.451 68.451)"/><path d="M347.934,115.751H322.616v25.317h25.318Zm-3.8,21.52H326.414V119.549h17.722Z" transform="translate(-322.616 -115.751)"/><rect width="10.127" height="10.127" transform="translate(7.595 7.595)"/><path d="M386.676,115.751v25.317h25.318V115.751Zm21.52,21.52H390.474V119.549H408.2Z" transform="translate(-315.789 -115.751)"/><rect width="10.127" height="10.127" transform="translate(78.483 7.595)"/><path d="M322.616,205.185h25.318V179.869H322.616Zm3.8-21.52h17.722v17.722H326.414Z" transform="translate(-322.616 -108.917)"/><rect width="10.127" height="10.127" transform="translate(7.595 78.546)"/></g></g></g><g transform="translate(78.376 254.931)"><text transform="translate(0 8)" fill="#fff" font-size="8" font-family="Montserrat-Bold, Montserrat" font-weight="700" letter-spacing="0.16em"><tspan x="0" y="0">SCAN</tspan></text></g><line x2="159.133" transform="translate(13.133 112.469)" fill="none" stroke="#bf360c" stroke-miterlimit="10" stroke-width="1"/><g transform="translate(59.717 82.475)"><text transform="translate(0 1)" fill="#fff" font-size="1" font-family="Montserrat-Bold, Montserrat" font-weight="700" letter-spacing="0.16em"><tspan x="0" y="0">-SCAN ME-</tspan></text></g></g><path d="M368.276,322.343l17.651,16.18,25.006-36.773,8.826,7.355-33.832,44.128-25.006-27.948Z" transform="translate(-86.948 347.821)" fill="#72af2e"/></g></g><g transform="translate(19 0)"><rect width="56.473" height="1.218" transform="matrix(0.882, -0.472, 0.472, 0.882, 541.305, 765.565)" fill="#3f3d56"/><path d="M339.7,789.193s0,55.119-12.65,69.576c0,0-2.711,7.229-3.614,9.94a37.99,37.99,0,0,1-1.807,4.518v3.614s-24.4-2.711-27.108-9.036l4.518-5.422s.9-.9,0-3.614a1.856,1.856,0,0,1,1.807-2.711l6.325-14.458-.9-59.637,4.518-82.227,38.854-1.807Z" transform="translate(214.373 127.924)" fill="#2f2e41"/><path d="M270.31,1110.014s6.325,18.975,0,19.879-61.444,1.807-60.541-5.421,18.975-6.325,18.975-6.325L247.72,1106.4Z" transform="translate(263.885 -110.67)" fill="#2f2e41"/><path d="M398.688,702.276a41,41,0,0,1-5.421,24.4c-7.229,12.65-2.711,55.119-2.711,55.119l64.155,56.023S442.06,859.5,437.542,858.6s-75.9-58.733-75.9-58.733L333.63,705.89Z" transform="translate(191.529 125.386)" fill="#2f2e41"/><path d="M591.947,1022.424s19.414,4.816,16.791,10.642-31.368,52.865-36.99,48.232,4.816-19.413,4.816-19.413l.237-22.316Z" transform="translate(53.411 -61.619)" fill="#2f2e41"/><path d="M396.92,268.966a20.79,20.79,0,0,1-24.8,20.386,20.167,20.167,0,0,1-5.34-1.838,20.769,20.769,0,0,1-10.819-13.579,20.466,20.466,0,0,1-.6-4.969,20.783,20.783,0,1,1,41.566,0Z" transform="translate(178.839 390.63)" fill="#a0616a"/><path d="M412.755,315.785l-.919,26.743-17.487,6.909s-1.715-27.383-4.136-28.9S412.755,315.785,412.755,315.785Z" transform="translate(158.574 351.141)" fill="#a0616a"/><path d="M347.738,371.584s24.4-24.4,30.722-23.493,6.325,3.614,6.325,5.422-1.807,2.711,0,3.614,3.614,0,3.614,2.711,16.265,29.818,10.843,59.637-11.747,44.276-9.036,60.541.9,19.879.9,19.879-67.769,5.421-68.673-.9,2.711-2.711-1.807-7.229-2.711-4.518-2.711-7.229S337.8,371.584,347.738,371.584Z" transform="translate(200.914 332.286)" fill="#3660a8"/><path d="M389.859,688.681s-10.843,26.2-18.975,19.879,3.614-28.011,3.614-28.011Z" transform="translate(171.444 138.077)" fill="#fff"/><path d="M418.821,408.729s21.23,2.431,13.326,41.425-38.626,84.174-38.626,84.174l-20.783-9.94,27.108-53.312-6.325-33.433S389.907,406.018,418.821,408.729Z" transform="translate(168.685 296.948)" fill="#3660a8"/><path d="M194.858,475.2l-29.819,49.7,2.711,2.711Z" transform="translate(374.125 293.272)" opacity="0.2"/><path d="M241.1,530.891,217.184,570.08h8.133Z" transform="translate(343.666 260.744)" opacity="0.2"/><rect width="1.286" height="66.725" transform="translate(529.542 863.311) rotate(-20.877)" opacity="0.2"/><circle cx="1.285" cy="1.285" r="1.285" transform="translate(547.495 706.26)" fill="#d0cde1"/><line x1="10.926" y2="35.349" transform="translate(537.854 707.545)" fill="none"/><path d="M363.254,448.542a.642.642,0,0,0,.614-.453l10.926-35.349a.643.643,0,0,0-1.228-.38L362.64,447.71a.643.643,0,0,0,.614.832Z" transform="translate(174.6 294.995)" fill="#d0cde1"/><path d="M371.2,317.043,366,321.983c-5.349-2.692-10.515-9.945-11.974-15.889l6.814-2.856C361.288,309.3,365.592,313.332,371.2,317.043Z" transform="translate(179.613 358.47)" fill="#a1a1a1"/><path d="M380.85,305.827a.421.421,0,0,1-.061,0L368.711,304.1a.431.431,0,0,1,.121-.854l12.078,1.725a.431.431,0,0,1-.06.859Z" transform="translate(171.254 358.47)" fill="#a1a1a1"/><path d="M393.664,325.212a.431.431,0,0,1-.376-.643l4-7.124a.431.431,0,0,1,.752.423l-4,7.124a.431.431,0,0,1-.376.22Z" transform="translate(156.714 350.3)" fill="#a1a1a1"/><path d="M385.925,267.86c-1.682-.89-3.637-1.073-5.458-1.626a14.279,14.279,0,0,1-9.486-16.008,8.171,8.171,0,0,0,.342-2.638c-.244-1.974-2.263-3.248-4.2-3.7s-4-.387-5.849-1.114a8.859,8.859,0,0,1-5.168-7.1,14.674,14.674,0,0,1,1.96-8.844l.7,2.013a7.468,7.468,0,0,0,2.286-3.419,4.709,4.709,0,0,1,3.588,2.886c1.123.662,1.285-2.057,2.525-2.458a2.228,2.228,0,0,1,1.548.382c2.5,1.166,5.4.169,8.085-.477a30.433,30.433,0,0,1,14.128-.017,16.911,16.911,0,0,1,8.35,4.3,20.036,20.036,0,0,1,3.906,6.712c2.369,5.961,3.933,12.411,3.151,18.778a26.58,26.58,0,0,1-6.264,14.083c-1.788,2.061-7.623,9.249-10.823,8.023C385.225,276.088,390.662,270.365,385.925,267.86Z" transform="translate(178.459 404.221)" fill="#2f2e41"/></g></g></svg>